C:\Users\movea\Dropbox\PhDWork\ExperimentalData\subject7\100\P7S100W01_filtered35.mot
nRows=13
nColumns=28

name C:\Users\movea\Dropbox\PhDWork\ExperimentalData\subject7\100\P7S100W01_filtered35.mot
datacolumns 28
datarows 13
range 1.8520000000 1.8640000000
endheader
time	ground_force_1_vx	ground_force_1_vy	ground_force_1_vz	ground_force_1_px	ground_force_1_py	ground_force_1_pz	ground_moment_1_mx	ground_moment_1_my	ground_moment_1_mz	ground_force_2_vx	ground_force_2_vy	ground_force_2_vz	ground_force_2_px	ground_force_2_py	ground_force_2_pz	ground_moment_2_mx	ground_moment_2_my	ground_moment_2_mz	ground_force_3_vx	ground_force_3_vy	ground_force_3_vz	ground_force_3_px	ground_force_3_py	ground_force_3_pz	ground_moment_3_mx	ground_moment_3_my	ground_moment_3_mz
        1.8520000000	       -0.0000000000	        0.0000000000	        0.0000000000	        0.1988394955	        0.0000558755	       -0.3004071329	       -0.0000000000	       -0.0000000000	       -0.0000000000	        0.0000000000	        0.0000000000	        0.0000000000	        0.2029003516	       -0.0000795827	        0.4543649445	       -0.0000000000	        0.0000000000	       -0.0000000000	       25.9294777647	      683.0509990203	      107.0043194721	        0.2076431971	        0.0000770316	        1.3583900146	      -53.6390839628	       11.3383831391	      -40.8395491124	
        1.8530000000	       -0.0000000000	        0.0000000000	        0.0000000000	        0.1988394955	        0.0000558755	       -0.3004071329	       -0.0000000000	       -0.0000000000	       -0.0000000000	        0.0000000000	        0.0000000000	       -0.0000000000	        0.2029003516	       -0.0000795827	        0.4543649445	        0.0000000000	        0.0000000000	       -0.0000000000	       25.7131186796	      680.9121101668	      107.8984685536	        0.2076431971	        0.0000770316	        1.3583900146	      -53.5916784604	       11.3096243214	      -40.6722570125	
        1.8540000000	       -0.0000000000	        0.0000000000	        0.0000000000	        0.1988394955	        0.0000558755	       -0.3004071329	       -0.0000000000	       -0.0000000000	       -0.0000000000	       -0.0000000000	        0.0000000000	       -0.0000000000	        0.2029003516	       -0.0000795827	        0.4543649445	        0.0000000000	        0.0000000000	       -0.0000000000	       25.4870078613	      678.6605665708	      108.7786240020	        0.2076431971	        0.0000770316	        1.3583900146	      -53.5341367022	       11.2789398898	      -40.4956869692	
        1.8550000000	       -0.0000000000	        0.0000000000	        0.0000000000	        0.1988394955	        0.0000558755	       -0.3004071329	       -0.0000000000	       -0.0000000000	       -0.0000000000	       -0.0000000000	        0.0000000000	       -0.0000000000	        0.2029003516	       -0.0000795827	        0.4543649445	        0.0000000000	       -0.0000000000	       -0.0000000000	       25.2542332021	      676.2916204654	      109.6439409449	        0.2076431971	        0.0000770316	        1.3583900146	      -53.4662261473	       11.2461509264	      -40.3093197450	
        1.8560000000	       -0.0000000000	        0.0000000000	        0.0000000000	        0.1988394955	        0.0000558755	       -0.3004071329	       -0.0000000000	       -0.0000000000	       -0.0000000000	       -0.0000000000	        0.0000000000	       -0.0000000000	        0.2029003516	       -0.0000795827	        0.4543649445	        0.0000000000	       -0.0000000000	       -0.0000000000	       25.0180539097	      673.7955964747	      110.4940011163	        0.2076431971	        0.0000770316	        1.3583900146	      -53.3878402948	       11.2112599873	      -40.1131100318	
        1.8570000000	       -0.0000000000	        0.0000000000	        0.0000000000	        0.1988394955	        0.0000558755	       -0.3004071329	       -0.0000000000	       -0.0000000000	       -0.0000000000	       -0.0000000000	        0.0000000000	       -0.0000000000	        0.2029003516	       -0.0000795827	        0.4543649445	        0.0000000000	       -0.0000000000	       -0.0000000000	       24.7817988366	      671.1594828159	      111.3286487850	        0.2076431971	        0.0000770316	        1.3583900146	      -53.2988035478	       11.1744510542	      -39.9075215603	
        1.8580000000	       -0.0000000000	        0.0000000000	        0.0000000000	        0.1988394955	        0.0000558755	       -0.3004071329	       -0.0000000000	       -0.0000000000	       -0.0000000000	       -0.0000000000	        0.0000000000	       -0.0000000000	        0.2029003516	       -0.0000795827	        0.4543649445	        0.0000000000	       -0.0000000000	       -0.0000000000	       24.5478459181	      668.3706919162	      112.1480726218	        0.2076431971	        0.0000770316	        1.3583900146	      -53.1988678356	       11.1359582329	      -39.6935143799	
        1.8590000000	       -0.0000000000	        0.0000000000	        0.0000000000	        0.1988394955	        0.0000558755	       -0.3004071329	       -0.0000000000	       -0.0000000000	       -0.0000000000	       -0.0000000000	        0.0000000000	       -0.0000000000	        0.2029003516	       -0.0000795827	        0.4543649445	        0.0000000000	       -0.0000000000	       -0.0000000000	       24.3171505743	      665.4171024652	      112.9527586324	        0.2076431971	        0.0000770316	        1.3583900146	      -53.0877382469	       11.0960277813	      -39.4722630431	
        1.8600000000	       -0.0000000000	        0.0000000000	        0.0000000000	        0.1988394955	        0.0000558755	       -0.3004071329	       -0.0000000000	       -0.0000000000	       -0.0000000000	       -0.0000000000	        0.0000000000	       -0.0000000000	        0.2029003516	       -0.0000795827	        0.4543649445	        0.0000000000	       -0.0000000000	       -0.0000000000	       24.0897670510	      662.2856538218	      113.7432128127	        0.2076431971	        0.0000770316	        1.3583900146	      -52.9650473689	       11.0549038724	      -39.2446265930	
        1.8610000000	       -0.0000000000	        0.0000000000	        0.0000000000	        0.1988394955	        0.0000558755	       -0.3004071329	       -0.0000000000	       -0.0000000000	       -0.0000000000	       -0.0000000000	        0.0000000000	       -0.0000000000	        0.2029003516	       -0.0000795827	        0.4543649445	        0.0000000000	       -0.0000000000	       -0.0000000000	       23.8652926529	      658.9652606712	      114.5200845902	        0.2076431971	        0.0000770316	        1.3583900146	      -52.8303620981	       11.0127401713	      -39.0110219693	
        1.8620000000	       -0.0000000000	        0.0000000000	        0.0000000000	        0.1988394955	        0.0000558755	       -0.3004071329	       -0.0000000000	       -0.0000000000	       -0.0000000000	       -0.0000000000	        0.0000000000	       -0.0000000000	        0.2029003516	       -0.0000795827	        0.4543649445	        0.0000000000	       -0.0000000000	       -0.0000000000	       23.6429705902	      655.4512694304	      115.2844999563	        0.2076431971	        0.0000770316	        1.3583900146	      -52.6834701108	       10.9695591712	      -38.7716706684	
        1.8630000000	       -0.0000000000	        0.0000000000	        0.0000000000	        0.1988394955	        0.0000558755	       -0.3004071329	       -0.0000000000	       -0.0000000000	       -0.0000000000	       -0.0000000000	        0.0000000000	       -0.0000000000	        0.2029003516	       -0.0000795827	        0.4543649445	        0.0000000000	       -0.0000000000	       -0.0000000000	       23.4217071984	      651.7468491179	      116.0376112430	        0.2076431971	        0.0000770316	        1.3583900146	      -52.5245878224	       10.9253341325	      -38.5266359791	
        1.8640000000	       -0.0000000000	        0.0000000000	        0.0000000000	        0.1988394955	        0.0000558755	       -0.3004071329	       -0.0000000000	       -0.0000000000	       -0.0000000000	       -0.0000000000	        0.0000000000	       -0.0000000000	        0.2029003516	       -0.0000795827	        0.4543649445	        0.0000000000	       -0.0000000000	       -0.0000000000	       23.2001382218	      647.8618576662	      116.7798395514	        0.2076431971	        0.0000770316	        1.3583900146	      -52.3539674591	       10.8801105489	      -38.2757910367	
